HIERARCHY
ROOT root     
{
	OFFSET 0.0000 0.0000 0.0000
	CHANNELS 6 Xposition Yposition Zposition Zrotation Yrotation Xrotation
	JOINT pelvis   
	{
		OFFSET 0.0000 0.0000 0.0000
		CHANNELS 3 Zrotation Yrotation Xrotation
		JOINT thorax   
		{
			OFFSET 0.0000 23.0750 -5.0000
			CHANNELS 3 Zrotation Yrotation Xrotation
			JOINT rclavicle
			{
				OFFSET 0.0000 28.0009 0.0000
				CHANNELS 3 Zrotation Yrotation Xrotation
				JOINT rhumerus 
				{
					OFFSET -18.5725 5.5939 0.0000
					CHANNELS 3 Zrotation Yrotation Xrotation
					JOINT rradius  
					{
						OFFSET -24.8459 0.0000 0.0000
						CHANNELS 3 Zrotation Yrotation Xrotation
						JOINT rhand    
						{
							OFFSET -24.5477 0.0000 0.0000
							CHANNELS 3 Zrotation Yrotation Xrotation
							End Site
							{
								OFFSET -8.1826 0.0000 0.0000
							}
						}
					}
				}
			}
			JOINT lclavicle
			{
				OFFSET 0.0000 28.0009 0.0000
				CHANNELS 3 Zrotation Yrotation Xrotation
				JOINT lhumerus 
				{
					OFFSET 18.5725 5.5939 0.0000
					CHANNELS 3 Zrotation Yrotation Xrotation
					JOINT lradius  
					{
						OFFSET 24.8459 0.0000 0.0000
						CHANNELS 3 Zrotation Yrotation Xrotation
						JOINT lhand    
						{
							OFFSET 24.5477 0.0000 0.0000
							CHANNELS 3 Zrotation Yrotation Xrotation
							End Site
							{
								OFFSET 8.1826 0.0000 0.0000
							}
						}
					}
				}
			}
			JOINT head     
			{
				OFFSET 0.0000 35.2030 0.0000
				CHANNELS 3 Zrotation Yrotation Xrotation
				End Site
				{
					OFFSET 0.0000 11.7343 0.0000
				}
			}
		}
		JOINT rfemur   
		{
			OFFSET -8.2817 0.0000 0.0000
			CHANNELS 3 Zrotation Yrotation Xrotation
			JOINT rtibia   
			{
				OFFSET 0.0000 -43.3627 0.0000
				CHANNELS 3 Zrotation Yrotation Xrotation
				JOINT rfoot    
				{
					OFFSET 0.0000 -38.2947 0.0000
					CHANNELS 3 Zrotation Yrotation Xrotation
					JOINT rtoes    
					{
						OFFSET 0.0000 0.0000 16.6054
						CHANNELS 3 Zrotation Yrotation Xrotation
						End Site
						{
							OFFSET 0.0000 0.0000 5.5351
						}
					}
				}
			}
		}
		JOINT lfemur   
		{
			OFFSET 8.2817 0.0000 0.0000
			CHANNELS 3 Zrotation Yrotation Xrotation
			JOINT ltibia   
			{
				OFFSET 0.0000 -43.3627 0.0000
				CHANNELS 3 Zrotation Yrotation Xrotation
				JOINT lfoot    
				{
					OFFSET 0.0000 -38.2947 0.0000
					CHANNELS 3 Zrotation Yrotation Xrotation
					JOINT ltoes    
					{
						OFFSET 0.0000 0.0000 16.6054
						CHANNELS 3 Zrotation Yrotation Xrotation
						End Site
						{
							OFFSET 0.0000 0.0000 5.5351
						}
					}
				}
			}
		}
	}
}
MOTION
Frames: 9
Frame Time: .0333333
11.151 87.857 -5.3067 -178.752 64.9325 -161.985 0 -0 0 -0.99381 5.18354 -6.10188 21.7799 -7.0248 7.81043e-05 43.8429 13.7441 22.7784 -0 76.1868 -0 -1.78064 3.48176 -0.0541004 -28.1705 20.0459 0.000137219 -41.495 12.6868 15.6604 2.5515e-06 -82.7932 -2.24906e-06 1.14628 8.16086 0.0817985 -25.8047 23.1657 -10.6324 1.46679 -21.345 -10.8233 -0 -0 16.6525 -2.7244e-05 -7.00642 13.6527 -1.66151 -2.24146e-05 -62.2796 -5.85859 2.57488 -31.5525 -0 -0 43.7038 -7.67736e-06 10.9113 -3.16096 -0.608995 3.16165e-06 -19.3408 
11.84 87.822 -5.6323 -178.435 64.0706 -161.722 0 -0 0 -1.17742 5.39507 -6.09034 21.7073 -7.09406 2.96957e-05 43.2492 13.8703 22.6905 -8.50182e-07 77.2049 -1.06496e-06 -1.77651 3.48233 -0.0540007 -27.9974 20.0958 -7.80218e-05 -41.504 13.0142 15.7206 0 -82.9179 0 0.684802 8.17546 0.0489004 -25.316 23.2777 -10.429 1.45137 -21.8306 -10.1654 -0 -0 16.7184 1.55302e-05 -6.52656 14.0634 -1.59252 5.82927e-06 -63.4716 -6.44033 2.84674 -31.9058 -0 -0 41.8424 -6.27745e-06 10.5458 -3.53903 -0.658395 2.74012e-06 -18.6777 
12.532 87.772 -5.9735 -178.114 63.2088 -161.447 0 -0 0 -1.35238 5.58556 -6.10723 21.6591 -7.16699 -6.26197e-05 42.6517 13.9634 22.5565 -2.75389e-06 78.1871 -2.91097e-06 -1.75151 3.4914 -0.0534003 -27.8236 20.1217 -0.000149634 -41.55 13.3639 15.7215 -2.34482e-06 -83.0697 2.64721e-06 0.313897 8.18663 0.0224997 -24.7712 23.3783 -10.2152 1.42843 -22.3176 -9.55495 -0 -0 16.8936 -1.80238e-06 -5.94949 14.4804 -1.49271 -1.76127e-06 -64.8354 -7.09407 3.22484 -32.2492 -0 -0 39.9581 2.20955e-06 10.1217 -3.88816 -0.693602 1.15304e-06 -18.3969 
13.232 87.71 -6.3303 -177.784 62.3445 -161.165 0 -0 0 -1.51496 5.74808 -6.13892 21.6364 -7.23862 -6.21036e-05 42.055 14.0204 22.3779 -1.23401e-06 79.1275 -1.01959e-06 -1.70518 3.51021 -0.0522997 -27.6494 20.1502 0.000105129 -41.6307 13.6921 15.689 -1.19706e-06 -83.1975 1.34826e-06 0.0598007 8.19879 0.00430006 -24.1744 23.4715 -9.99931 1.39737 -22.802 -8.96783 -0 -0 17.1507 1.73648e-05 -5.29535 14.9204 -1.36709 -9.72951e-06 -66.3676 -7.82178 3.72355 -32.5701 -0 -0 38.0587 8.2754e-06 9.65683 -4.19342 -0.712901 3.44646e-06 -18.6674 
13.942 87.635 -6.7033 -177.452 61.4752 -160.892 0 -0 0 -1.66644 5.87763 -6.17637 21.6399 -7.31218 4.15987e-05 41.4682 14.0497 22.1621 -0 80.035 -0 -1.63361 3.53832 -0.0505009 -27.481 20.1774 -0.000195561 -41.7423 14.0006 15.6246 -2.44018e-06 -83.32 2.74256e-06 -0.0650008 8.21025 -0.00470006 -23.5291 23.5597 -9.78587 1.3544 -23.2913 -8.38647 -0 -0 17.4717 2.43256e-06 -4.5798 15.3899 -1.21781 -5.3104e-06 -67.9406 -8.62993 4.34736 -32.8613 -0 -0 36.1418 -2.16251e-06 9.17829 -4.4344 -0.715691 -4.11957e-07 -19.5934 
14.664 87.549 -7.0924 -177.115 60.5973 -160.625 0 -0 0 -1.80667 5.9726 -6.21724 21.67 -7.38818 -6.1053e-05 40.9 14.0502 21.9149 -1.23753e-06 80.8941 -1.45166e-06 -1.53531 3.57229 -0.0479006 -27.31 20.2168 3.79291e-05 -41.8809 14.263 15.5483 1.38884e-06 -83.4141 -1.23767e-06 -0.0580001 8.21834 -0.00420002 -22.8334 23.6445 -9.57408 1.30004 -23.7767 -7.79893 -0 -0 17.8349 6.91846e-07 -3.83025 15.8964 -1.05049 -1.17605e-06 -69.5549 -9.52059 5.0982 -33.114 -0 -0 34.2057 -2.03364e-06 8.7146 -4.59059 -0.702897 -6.75368e-06 -21.191 
15.4 87.452 -7.4983 -176.774 59.71 -160.379 0 -0 0 -1.93319 6.03277 -6.25006 21.7224 -7.47222 -4.06608e-05 40.3555 14.0302 21.638 -1.93576e-06 81.7055 -2.23841e-06 -1.41298 3.60824 -0.0444998 -27.1395 20.2596 -3.26775e-05 -42.0479 14.4847 15.4631 -2.49755e-06 -83.47 2.79988e-06 0.0688003 8.21845 0.00489998 -22.0931 23.7265 -9.36391 1.23068 -24.256 -7.18522 -0 -0 18.2246 9.12969e-06 -3.06218 16.4349 -0.867208 -2.48962e-06 -71.0929 -10.4935 5.97351 -33.3145 -0 -0 32.2467 -8.23363e-06 8.29143 -4.64779 -0.676497 -1.93981e-06 -23.3458 
16.154 87.341 -7.9215 -176.418 58.8126 -160.148 0 -0 0 -2.04165 6.06148 -6.26829 21.7947 -7.56777 -9.11365e-06 39.8453 13.9914 21.3413 -4.36016e-06 82.4611 -4.51676e-06 -1.27175 3.64106 -0.0404016 -26.9651 20.3013 0.000173133 -42.2436 14.6641 15.3714 0 -83.4765 0 0.294304 8.20702 0.0211002 -21.3094 23.8054 -9.1513 1.14609 -24.721 -6.52998 -0 -0 18.6262 -1.43673e-05 -2.28998 17.0048 -0.669994 4.09149e-06 -72.5236 -11.5405 6.96968 -33.4494 -0 -0 30.2643 -5.16955e-06 7.92671 -4.60135 -0.639996 6.50066e-06 -25.8143 
16.926 87.216 -8.3609 -176.041 57.9087 -159.932 0 -0 0 -2.12346 6.06557 -6.2703 21.8818 -7.67635 3.4337e-05 39.3679 13.9361 21.0288 -4.82291e-06 83.1798 -4.97943e-06 -1.1186 3.66508 -0.0358 -26.7828 20.3425 -7.27719e-05 -42.4738 14.8011 15.2788 -2.15629e-06 -83.4461 2.41814e-06 0.589802 8.18216 0.0421998 -20.4835 23.8782 -8.92968 1.05199 -25.145 -5.82506 -0 -0 19.0295 1.34146e-05 -1.52615 17.596 -0.461499 -1.75669e-07 -73.8628 -12.6459 8.08194 -33.5128 -0 -0 28.2742 6.22101e-06 7.62679 -4.4567 -0.596095 4.96353e-06 -28.2611 
